<?xml version="1.0" encoding="UTF-8"?>
<svg id="Layer_2" data-name="Layer 2" xmlns="http://www.w3.org/2000/svg" viewBox="0 0 2580.51 537.31">
  <defs>
    <style>
      .cls-1 {
        fill: #fff;
        stroke-width: 0px;
      }
    </style>
  </defs>
  <g id="Layer_1-2" data-name="Layer 1">
    <g>
      <g>
        <path class="cls-1" d="m1022.62,299.53l95.38,156.58h-91.52l-82.7-138.39h-95.38v138.39h-83.81V81.2h198.49c86.01,0,142.8,35.29,142.8,108.62v12.68c0,51.83-33.63,83.81-83.25,97.04Zm-174.23-45.76h110.27c31.98-.55,62.85-14.34,62.85-44.66v-13.78c0-29.22-25.91-45.21-63.96-45.21h-109.17v103.65Z"/>
        <path class="cls-1" d="m1522.4,81.2v49.62l-220.54,255.83h219.44v69.47h-335.22v-50.17l222.19-254.72h-219.44v-70.02h333.57Z"/>
        <path class="cls-1" d="m1640.11,81.2h83.81v374.92h-83.81V81.2Z"/>
        <path class="cls-1" d="m1899.83,219.03v99.24c0,51.28,40.8,72.78,95.93,72.78,41.9,0,79.39-7.72,107.51-25.36l28.12,62.3c-39.7,24.26-76.64,33.63-141.15,33.63-100.35,0-174.23-46.31-174.23-138.94v-108.62c0-86.01,79.95-138.39,173.68-138.39,63.41,0,104.21,10.48,145.56,37.49l-30.88,60.65c-29.22-17.09-62.85-27.02-109.17-27.02-50.72,0-95.38,25.91-95.38,72.23Z"/>
        <path class="cls-1" d="m2213.86,150.67v-69.47h366.65v69.47h-142.8v305.45h-83.81V150.67h-140.04Z"/>
      </g>
      <g>
        <polygon class="cls-1" points="229.81 185.92 0 380.56 0 185.92 229.81 185.92"/>
        <path class="cls-1" d="m440.49,108.68H0V0h429.99c92.14,0,166.79,74.65,166.79,166.75,0,46.07-18.67,87.73-48.84,117.95-.15.15-.29.29-.44.44-22.6,22.44-53.6,34.37-85.44,34.37H191.6l248.89-210.82Z"/>
        <path class="cls-1" d="m626.36,537.31H0v-140.57h420.51c20.34,0,40.06,6.96,55.89,19.72l149.96,120.86Z"/>
      </g>
    </g>
  </g>
</svg>